<svg xmlns="http://www.w3.org/2000/svg" viewBox="0 0 760 380" width="760" height="380" role="img" aria-label="표면별 공 속도 감소 그래프">
  <rect x="0" y="0" width="760" height="380" fill="#ffffff"/>
  <text x="70" y="24" font-family="Malgun Gothic, Arial, sans-serif" font-size="18" font-weight="700">표면별 속도 감소 검증</text>
  <line x1="70" y1="300" x2="670" y2="300" stroke="#222"/>
  <line x1="70" y1="40" x2="70" y2="300" stroke="#222"/>
  <text x="345" y="345" font-family="Malgun Gothic, Arial, sans-serif" font-size="13">시간 (초)</text>
  <text x="12" y="180" font-family="Malgun Gothic, Arial, sans-serif" font-size="13" transform="rotate(-90 12,180)">속도 (m/s)</text>
  <text x="55" y="304" font-family="Malgun Gothic, Arial, sans-serif" font-size="11">0</text>
  <text x="48" y="223" font-family="Malgun Gothic, Arial, sans-serif" font-size="11">5</text>
  <text x="42" y="142" font-family="Malgun Gothic, Arial, sans-serif" font-size="11">10</text>
  <text x="42" y="61" font-family="Malgun Gothic, Arial, sans-serif" font-size="11">15</text>
  <text x="70" y="318" font-family="Malgun Gothic, Arial, sans-serif" font-size="11">0</text>
  <text x="228" y="318" font-family="Malgun Gothic, Arial, sans-serif" font-size="11">0.5</text>
  <text x="386" y="318" font-family="Malgun Gothic, Arial, sans-serif" font-size="11">1.0</text>
  <text x="544" y="318" font-family="Malgun Gothic, Arial, sans-serif" font-size="11">1.5</text>
  <polyline fill="none" stroke="#D85A30" stroke-width="3" points="70,48.9 152.1,140.1 234.2,231.3 316.3,294.4 322.6,300"/>
  <polyline fill="none" stroke="#BA7517" stroke-width="3" stroke-dasharray="8,5" points="70,78.8 152.1,136.8 234.2,194.8 316.3,252.9 398.4,298.1 401.6,300"/>
  <polyline fill="none" stroke="#1D9E75" stroke-width="3" points="70,56.7 152.1,91.9 234.2,127.1 316.3,162.4 398.4,197.6 480.5,232.8 562.6,268.1 635.3,300"/>
  <rect x="500" y="50" width="14" height="4" fill="#D85A30"/><text x="522" y="56" font-family="Malgun Gothic, Arial, sans-serif" font-size="12">Bunker μ=2.2</text>
  <rect x="500" y="72" width="14" height="4" fill="#BA7517"/><text x="522" y="78" font-family="Malgun Gothic, Arial, sans-serif" font-size="12">Rough μ=1.4</text>
  <rect x="500" y="94" width="14" height="4" fill="#1D9E75"/><text x="522" y="100" font-family="Malgun Gothic, Arial, sans-serif" font-size="12">Fairway μ=0.85</text>
</svg>
